# xmcd
#
# Track frame offsets: 
#        150
#        13387
#        39082
#        57336
#        81467
#        86195
#        90078
#        108118
#        139748
#        143324
#        159345
#
# Disc length: 2564 seconds
#
# Revision: 0
# Processed by: cddbd v1.5.2PL0 Copyright (c) Steve Scherf et al.
# Submitted via: ExactAudioCopyFreeDBPlugin 1.0
#
DISCID=7d0a020b
DTITLE=Hobocombo - Moondog Mask
DYEAR=2013
DGENRE=Country
TTITLE0=01. Theme and Variations
TTITLE1=02. Desert Boogaloo
TTITLE2=03. East Timor
TTITLE3=04. Utsu
TTITLE4=05. Canon #6 (Vivace)
TTITLE5=06. Canon #18 (Adagietto)
TTITLE6=07. Baltic Dance
TTITLE7=08. Response
TTITLE8=09. The Old Serge and the Flutes
TTITLE9=10. To a Sea Horse
TTITLE10=11. Five Reasons
EXTD=
EXTT0=
EXTT1=
EXTT2=
EXTT3=
EXTT4=
EXTT5=
EXTT6=
EXTT7=
EXTT8=
EXTT9=
EXTT10=
PLAYORDER=
